PathFileType	4	(x/y/z)	S10_M20_T01
DataRate	CameraRate	NumFrames	NumMarkers	Units	OrigDataRate	OrigDataStartFrame	OrigNumFrames
240	240	10	51	mm	240	1	508
Frame#	Time	Sternum			R.Acromium			L.Acromium			Top.Head			R.ASIS			L.ASIS			R.PSIS			L.PSIS			R.Great.Tro			L.Great.Tro			R.Iliac.Crest			L.Iliac.Crest			V.Sacral			R.Thigh.Upper.Post			R.Thigh.Lower.Ant			R.Thigh.Lower.Post			R.Thigh.Upper.Ant			R.Knee.Lat			R.Knee.Med			R.Shank.Upper.Post			R.Shank.Lower.Ant			R.Shank.Lower.Post			R.Shank.Upper.Ant			R.Ankle.Lat			R.Ankle.Med			R.Heel.Upper			R.Heel.Med			R.Heel.Lat			R.Toe.Lat			R.Toe.Med			R.Toe.Tip			L.Thigh.Upper.Post			L.Thigh.Lower.Ant			L.Thigh.Lower.Post			L.Thigh.Upper.Ant			L.Knee.Lat			L.Knee.Med			L.Shank.Upper.Post			L.Shank.Lower.Ant			L.Shank.Lower.Post			L.Shank.Upper.Ant			L.Ankle.Lat			L.Ankle.Med			L.Heel.Upper			L.Heel.Med			L.Heel.Lat			L.Toe.Lat			L.Toe.Med			L.Toe.Tip			Cervical.Spine			Back			
		X1	Y1	Z1	X2	Y2	Z2	X3	Y3	Z3	X4	Y4	Z4	X5	Y5	Z5	X6	Y6	Z6	X7	Y7	Z7	X8	Y8	Z8	X9	Y9	Z9	X10	Y10	Z10	X11	Y11	Z11	X12	Y12	Z12	X13	Y13	Z13	X14	Y14	Z14	X15	Y15	Z15	X16	Y16	Z16	X17	Y17	Z17	X18	Y18	Z18	X19	Y19	Z19	X20	Y20	Z20	X21	Y21	Z21	X22	Y22	Z22	X23	Y23	Z23	X24	Y24	Z24	X25	Y25	Z25	X26	Y26	Z26	X27	Y27	Z27	X28	Y28	Z28	X29	Y29	Z29	X30	Y30	Z30	X31	Y31	Z31	X32	Y32	Z32	X33	Y33	Z33	X34	Y34	Z34	X35	Y35	Z35	X36	Y36	Z36	X37	Y37	Z37	X38	Y38	Z38	X39	Y39	Z39	X40	Y40	Z40	X41	Y41	Z41	X42	Y42	Z42	X43	Y43	Z43	X44	Y44	Z44	X45	Y45	Z45	X46	Y46	Z46	X47	Y47	Z47	X48	Y48	Z48	X49	Y49	Z49	X50	Y50	Z50	X51	Y51	Z51	

1	0	NaN	NaN	NaN	-1657.2	1388	453.23	-1663.2	1415.4	145.64	-1699.3	1704.5	311.75	NaN	NaN	NaN	NaN	NaN	NaN	NaN	NaN	NaN	NaN	NaN	NaN	-1717.6	891.38	475.81	NaN	NaN	NaN	-1715.9	1045.1	444.17	NaN	NaN	NaN	-1809.4	956.94	253.5	NaN	NaN	NaN	-1761.1	602.72	426.87	NaN	NaN	NaN	-1714.2	681.06	445.41	-1881.2	508.78	398.83	-1856.1	510	271.51	NaN	NaN	NaN	NaN	NaN	NaN	-2068.7	271.86	372.21	-1973	318.53	378.87	-2110.3	165.33	344.57	-2087.8	168.44	268.73	-2185.5	140.68	294.25	-2182.4	112.79	265.96	-2191.3	115.23	326.85	-2037.1	48.669	379.73	-2001.2	48.772	274.29	-1945.6	52.077	318.91	-1558.6	647.04	124.32	NaN	NaN	NaN	-1522	561.57	148.75	NaN	NaN	NaN	-1452.9	500.77	166.88	-1452	502.08	294.15	-1414.3	283.3	163.7	-1325.6	229.01	188.66	-1386	210.19	180.4	NaN	NaN	NaN	-1297.7	111.45	197.12	-1296.3	129.67	282.36	-1342.3	55.752	245.05	-1318.3	36.025	278.77	-1320.1	33.329	213.6	-1160.3	104.41	180.97	NaN	NaN	NaN	-1105.8	167.42	242.2	-1739.8	1456.2	311.81	-1826.6	1250.6	286.59
2	0.0041667	NaN	NaN	NaN	-1651.4	1387.6	452.62	-1657.5	1414.6	145.01	-1694.3	1703.9	311.11	NaN	NaN	NaN	NaN	NaN	NaN	NaN	NaN	NaN	NaN	NaN	NaN	-1711.7	890.67	475.7	NaN	NaN	NaN	-1709.8	1044.4	443.98	NaN	NaN	NaN	-1803.3	956.27	253.19	NaN	NaN	NaN	-1755.1	602.07	427.07	NaN	NaN	NaN	-1708.3	680.45	445.56	-1875.5	508.09	399.03	-1850.3	509.27	271.75	NaN	NaN	NaN	NaN	NaN	NaN	-2064.4	272.85	372.81	-1968.2	319.08	378.87	-2107.8	167.08	344.98	-2085.3	169.92	269.18	-2183.1	143.59	294.5	-2180.5	115.83	266.18	-2189.5	118.08	327.05	-2036.7	48.864	379.88	-2000.6	48.865	274.37	-1945.7	51.889	318.96	-1552.8	646.7	124.87	NaN	NaN	NaN	-1516.5	561.12	149.45	NaN	NaN	NaN	-1447.6	500.2	167.57	-1446.9	501.44	294.71	-1410.9	282.25	165.02	-1320.6	228.58	189	-1381.9	209.53	181.08	NaN	NaN	NaN	-1294.6	110.78	197.64	-1292.7	128.34	283.46	-1340.1	56.868	245.64	NaN	NaN	NaN	-1319	34.083	214	-1158	100.98	181.21	NaN	NaN	NaN	-1102	162.34	242.31	-1734.2	1455.6	311.12	-1820.7	1249.8	286.2
3	0.0083333	NaN	NaN	NaN	-1645.4	1387.2	451.99	-1651.6	1413.7	144.36	-1689.1	1703.3	310.43	NaN	NaN	NaN	NaN	NaN	NaN	NaN	NaN	NaN	NaN	NaN	NaN	-1705.6	889.93	475.58	NaN	NaN	NaN	-1703.6	1043.8	443.78	NaN	NaN	NaN	-1796.9	955.61	252.88	NaN	NaN	NaN	-1748.9	601.39	427.29	NaN	NaN	NaN	-1702	679.81	445.71	-1869.4	507.37	399.25	-1844.1	508.47	272.01	NaN	NaN	NaN	NaN	NaN	NaN	-2060	273.92	373.4	-1963.3	319.62	378.92	-2105.1	168.91	345.42	-2082.7	171.46	269.66	-2180.4	146.66	294.76	-2178.4	119.05	266.41	-2187.5	121.11	327.26	-2036.3	49.079	380.02	-1999.9	48.971	274.45	-1945.8	51.695	319.01	-1546.7	646.39	125.43	NaN	NaN	NaN	-1510.8	560.7	150.15	NaN	NaN	NaN	-1442.1	499.66	168.25	-1441.6	500.81	295.3	-1407.2	281.26	166.32	-1315.6	228.11	189.36	-1377.5	208.9	181.78	-1350.4	294.12	177.41	-1291.5	110.08	198.16	-1288.9	127	284.55	-1337.9	58.022	246.22	NaN	NaN	NaN	-1317.8	34.861	214.39	-1155.6	97.431	181.46	NaN	NaN	NaN	-1098	157.06	242.43	-1728.4	1455	310.4	-1814.6	1249	285.8
4	0.0125	NaN	NaN	NaN	-1639.1	1386.8	451.33	-1645.5	1412.9	143.67	-1683.8	1702.7	309.74	NaN	NaN	NaN	NaN	NaN	NaN	NaN	NaN	NaN	NaN	NaN	NaN	-1699.3	889.17	475.46	NaN	NaN	NaN	-1697	1043.2	443.58	NaN	NaN	NaN	-1790.3	954.95	252.56	NaN	NaN	NaN	-1742.4	600.69	427.53	NaN	NaN	NaN	-1695.5	679.15	445.88	-1863.1	506.6	399.49	-1837.7	507.62	272.29	NaN	NaN	NaN	NaN	NaN	NaN	-2055.4	275.06	373.99	-1958.2	320.13	379.01	-2102.3	170.82	345.88	-2079.9	173.07	270.17	-2177.6	149.87	295.03	-2176.1	122.43	266.64	-2185.4	124.32	327.48	-2035.8	49.316	380.16	-1999.2	49.093	274.51	-1945.9	51.494	319.08	-1540.4	646.12	125.99	NaN	NaN	NaN	-1504.8	560.31	150.85	NaN	NaN	NaN	-1436.4	499.16	168.93	-1436.2	500.19	295.93	-1403.3	280.37	167.57	-1310.4	227.61	189.76	-1373.1	208.29	182.47	-1345.8	293.75	178.3	-1288.3	109.37	198.66	-1285.2	125.64	285.62	-1335.6	59.204	246.78	NaN	NaN	NaN	-1316.6	35.657	214.78	-1153.3	93.799	181.69	NaN	NaN	NaN	-1094	151.65	242.54	-1722.4	1454.3	309.66	-1808.3	1248.1	285.38
5	0.016667	NaN	NaN	NaN	-1632.7	1386.4	450.65	-1639.2	1412	142.97	-1678.3	1702.1	309.03	NaN	NaN	NaN	NaN	NaN	NaN	NaN	NaN	NaN	NaN	NaN	NaN	-1692.7	888.4	475.35	NaN	NaN	NaN	-1690.3	1042.5	443.39	NaN	NaN	NaN	-1783.5	954.31	252.25	NaN	NaN	NaN	-1735.7	599.95	427.79	NaN	NaN	NaN	-1688.8	678.47	446.05	-1856.4	505.8	399.76	-1831	506.7	272.6	NaN	NaN	NaN	NaN	NaN	NaN	-2050.7	276.28	374.55	-1953	320.6	379.17	-2099.3	172.79	346.35	-2076.9	174.74	270.7	-2174.6	153.21	295.33	-2173.7	125.97	266.89	-2183.1	127.7	327.7	-2035.3	49.58	380.29	-1998.5	49.229	274.57	-1946	51.291	319.17	-1534	645.91	126.54	NaN	NaN	NaN	-1498.7	559.99	151.52	NaN	NaN	NaN	-1430.5	498.72	169.59	-1430.8	499.62	296.58	-1399.2	279.59	168.75	-1305.2	227.09	190.2	-1368.6	207.74	183.16	-1340.9	293.39	179.2	-1285.1	108.66	199.15	-1281.4	124.3	286.65	-1333.3	60.404	247.31	NaN	NaN	NaN	-1315.4	36.464	215.15	-1151	90.116	181.92	NaN	NaN	NaN	-1090	146.12	242.65	-1716.2	1453.7	308.9	-1801.8	1247.3	284.97
6	0.020833	NaN	NaN	NaN	-1626.1	1386	449.96	-1632.8	1411.1	142.24	-1672.6	1701.6	308.3	NaN	NaN	NaN	NaN	NaN	NaN	NaN	NaN	NaN	NaN	NaN	NaN	-1686	887.62	475.23	NaN	NaN	NaN	-1683.5	1041.9	443.19	NaN	NaN	NaN	-1776.6	953.69	251.94	NaN	NaN	NaN	-1728.8	599.19	428.07	NaN	NaN	NaN	-1681.9	677.79	446.22	-1849.6	504.95	400.06	-1824	505.73	272.94	NaN	NaN	NaN	NaN	NaN	NaN	-2045.9	277.58	375.08	-1947.7	321.03	379.39	-2096.1	174.83	346.85	-2073.8	176.45	271.26	-2171.4	156.69	295.63	-2171	129.66	267.16	-2180.5	131.25	327.94	-2034.8	49.877	380.43	-1997.7	49.38	274.61	-1946.1	51.089	319.27	-1527.4	645.77	127.08	NaN	NaN	NaN	-1492.5	559.74	152.17	NaN	NaN	NaN	-1424.4	498.35	170.23	-1425.3	499.09	297.25	-1394.9	278.96	169.84	-1300	226.54	190.67	-1364	207.26	183.84	-1335.9	293.04	180.1	-1281.9	107.95	199.61	-1277.7	122.98	287.63	-1331	61.611	247.8	NaN	NaN	NaN	-1314.2	37.275	215.49	-1148.6	86.416	182.13	NaN	NaN	NaN	-1086.1	140.54	242.75	-1709.8	1453.1	308.12	-1795.1	1246.5	284.56
7	0.025	NaN	NaN	NaN	-1619.5	1385.7	449.26	-1626.3	1410.3	141.5	-1666.9	1701	307.57	NaN	NaN	NaN	NaN	NaN	NaN	NaN	NaN	NaN	NaN	NaN	NaN	-1679.2	886.83	475.12	NaN	NaN	NaN	-1676.4	1041.3	443.01	NaN	NaN	NaN	-1769.5	953.11	251.65	NaN	NaN	NaN	-1721.8	598.41	428.36	NaN	NaN	NaN	-1674.8	677.09	446.4	-1842.5	504.06	400.4	-1816.8	504.68	273.32	NaN	NaN	NaN	NaN	NaN	NaN	-2041.1	278.95	375.59	-1942.3	321.41	379.68	-2092.8	176.92	347.38	-2070.5	178.21	271.84	-2167.9	160.28	295.96	-2168.2	133.49	267.43	-2177.8	134.96	328.2	-2034.2	50.211	380.55	-1996.9	49.544	274.65	-1946.2	50.89	319.38	-1520.7	645.71	127.59	NaN	NaN	NaN	-1486.1	559.57	152.77	NaN	NaN	NaN	-1418.2	498.07	170.85	-1419.8	498.63	297.95	-1390.4	278.48	170.83	-1294.9	225.97	191.17	-1359.4	206.84	184.48	-1330.8	292.71	180.99	-1278.8	107.24	200.03	-1274	121.71	288.54	-1328.7	62.814	248.25	NaN	NaN	NaN	-1313.1	38.082	215.81	-1146.4	82.732	182.33	NaN	NaN	NaN	-1082.2	134.95	242.85	-1703.4	1452.6	307.33	-1788.3	1245.7	284.16
8	0.029167	NaN	NaN	NaN	-1612.8	1385.4	448.55	-1619.7	1409.4	140.76	-1661.1	1700.5	306.83	NaN	NaN	NaN	NaN	NaN	NaN	NaN	NaN	NaN	NaN	NaN	NaN	-1672.2	886.04	475.01	NaN	NaN	NaN	-1669.3	1040.8	442.84	NaN	NaN	NaN	-1762.4	952.57	251.38	NaN	NaN	NaN	-1714.5	597.61	428.68	NaN	NaN	NaN	-1667.6	676.39	446.59	-1835.2	503.12	400.77	-1809.3	503.56	273.73	NaN	NaN	NaN	NaN	NaN	NaN	-2036.1	280.39	376.07	-1936.8	321.74	380.06	-2089.2	179.06	347.92	-2066.9	180.01	272.44	-2164.2	163.99	296.31	-2165.2	137.46	267.72	-2174.8	138.83	328.46	-2033.6	50.59	380.68	-1996.1	49.721	274.67	-1946.3	50.699	319.5	-1513.9	645.74	128.07	NaN	NaN	NaN	-1479.6	559.49	153.34	NaN	NaN	NaN	-1411.9	497.9	171.44	-1414.3	498.26	298.68	-1385.7	278.17	171.71	-1289.9	225.38	191.69	-1354.8	206.52	185.09	-1325.6	292.41	181.84	-1275.7	106.56	200.42	-1270.4	120.48	289.38	-1326.5	63.999	248.66	NaN	NaN	NaN	-1311.9	38.878	216.11	-1144.2	79.1	182.51	NaN	NaN	NaN	-1078.5	129.4	242.94	-1696.9	1452.1	306.54	-1781.5	1245	283.77
9	0.033333	NaN	NaN	NaN	-1606	1385.1	447.83	-1613.1	1408.6	140	-1655.3	1700	306.09	NaN	NaN	NaN	NaN	NaN	NaN	NaN	NaN	NaN	NaN	NaN	NaN	-1665.2	885.24	474.9	NaN	NaN	NaN	-1662.2	1040.3	442.68	NaN	NaN	NaN	-1755.3	952.09	251.14	NaN	NaN	NaN	-1707.1	596.78	429.02	NaN	NaN	NaN	-1660.3	675.69	446.77	-1827.7	502.14	401.18	-1801.7	502.36	274.18	NaN	NaN	NaN	NaN	NaN	NaN	-2031.1	281.91	376.51	-1931.2	322.01	380.51	-2085.5	181.24	348.48	-2063.2	181.85	273.06	-2160.2	167.81	296.68	-2161.9	141.56	268.02	-2171.6	142.86	328.75	-2032.9	51.023	380.8	-1995.4	49.907	274.67	-1946.5	50.52	319.62	-1507.1	645.87	128.51	NaN	NaN	NaN	-1473	559.52	153.85	NaN	NaN	NaN	-1405.4	497.84	172.01	-1408.8	497.99	299.43	-1380.9	278.02	172.49	-1285	224.77	192.24	-1350.2	206.28	185.66	-1320.4	292.15	182.67	-1272.7	105.89	200.78	-1267	119.31	290.14	-1324.4	65.157	249.01	NaN	NaN	NaN	-1310.8	39.657	216.37	-1142.2	75.551	182.67	NaN	NaN	NaN	-1074.9	123.93	243.03	-1690.3	1451.6	305.74	-1774.6	1244.3	283.4
10	0.0375	NaN	NaN	NaN	-1599.2	1384.9	447.11	-1606.4	1407.8	139.25	-1649.5	1699.6	305.35	NaN	NaN	NaN	NaN	NaN	NaN	NaN	NaN	NaN	NaN	NaN	NaN	-1658	884.45	474.78	NaN	NaN	NaN	-1654.9	1039.8	442.54	NaN	NaN	NaN	-1748.1	951.66	250.92	NaN	NaN	NaN	-1699.6	595.93	429.38	NaN	NaN	NaN	-1652.9	674.99	446.97	-1820	501.1	401.64	-1793.8	501.09	274.68	NaN	NaN	NaN	NaN	NaN	NaN	-2026	283.49	376.92	-1925.5	322.23	381.03	-2081.5	183.47	349.06	-2059.3	183.72	273.7	-2155.9	171.74	297.08	-2158.4	145.8	268.35	-2168.1	147.05	329.05	-2032.1	51.518	380.91	-1994.6	50.1	274.67	-1946.6	50.358	319.73	-1500.2	646.11	128.91	NaN	NaN	NaN	-1466.4	559.67	154.32	NaN	NaN	NaN	-1398.8	497.91	172.56	-1403.3	497.84	300.19	-1376.1	278.02	173.16	-1280.2	224.16	192.8	-1345.7	206.15	186.16	-1315.1	291.92	183.45	-1269.9	105.26	201.1	-1263.7	118.21	290.82	-1322.3	66.278	249.32	NaN	NaN	NaN	-1309.7	40.413	216.6	-1140.2	72.116	182.81	NaN	NaN	NaN	-1071.5	118.59	243.11	-1683.6	1451.2	304.95	-1767.6	1243.6	283.05
